<!-- Web Faery stand-in layer. Canvas 100 x 130 (draw at 1000 x 1300 or bigger). Every layer shares this canvas so they line up. -->
<svg width="1000" height="1300" viewBox="0 0 100 130" xmlns="http://www.w3.org/2000/svg" aria-hidden="true" focusable="false"><g stroke-linecap="round" stroke-linejoin="round"><defs><linearGradient id="fy-cap" x1="0" y1="0" x2="0" y2="1"><stop offset="0" stop-color="#f9d58a"/><stop offset=".55" stop-color="#eeaa4a"/><stop offset="1" stop-color="#dc9136"/></linearGradient></defs><path d="M43.8 100 C43.4 108 42 114 40.8 119.4 C39.8 124 43.6 127.4 50 127.4 C56.4 127.4 60.2 124 59.2 119.4 C58 114 56.6 108 56.2 100 Z" fill="#f3e6cf"/><path d="M53.4 101 C54 108 55.4 114 56.2 119.4 C56.8 123.2 55.4 126 52.6 127.1 C57.4 126.6 60.2 123.6 59.2 119.4 C58 114 56.6 108 56.2 100 Z" fill="#d9c6a4"/><path d="M41.4 123.4 C43 126 46 127 50 127 C54 127 57 126 58.6 123.4 C56.4 125.2 53.6 125.8 50 125.8 C46.4 125.8 43.6 125.2 41.4 123.4 Z" fill="#d9c6a4"/><path d="M43.6 105.4 C47 107.2 53 107.2 56.4 105.4 L56.5 108.4 C53 109.8 47 109.8 43.5 108.4 Z" fill="#d9c6a4" opacity=".8"/><path d="M45 111.4 C44.4 114.6 43.6 117.8 43.2 121" fill="none" stroke="#fffaf0" stroke-width="1" opacity=".8"/><path d="M43.8 100 C43.4 108 42 114 40.8 119.4 C39.8 124 43.6 127.4 50 127.4 C56.4 127.4 60.2 124 59.2 119.4 C58 114 56.6 108 56.2 100 Z" fill="none" stroke="#1b1016" stroke-width="1.2"/><path d="M18.8 100.6 C17.8 87.2 31.6 79.2 50 79.2 C68.4 79.2 82.2 87.2 81.2 100.6 C81 104.4 71.6 106.2 50 106.2 C28.4 106.2 19 104.4 18.8 100.6 Z" fill="url(#fy-cap)"/><path d="M19.4 101.8 C21.6 104.4 31.6 106 50 106 C68.4 106 78.4 104.4 80.6 101.8 C75 103.8 64.2 104.6 50 104.6 C35.8 104.6 25 103.8 19.4 101.8 Z" fill="#bf7a2a"/><path d="M23.4 94.2 C24.4 87.8 31.4 83 39.8 82.2" fill="none" stroke="#fff0c8" stroke-width="1.8" opacity=".75"/><g fill="#fff4dc"><ellipse cx="27.2" cy="95.8" rx="3.2" ry="2.2" fill="#fff4dc"/><ellipse cx="72.8" cy="95.2" rx="3" ry="2.1" fill="#fff4dc"/><ellipse cx="62.4" cy="101" rx="2.3" ry="1.4" fill="#fff4dc"/><ellipse cx="37.4" cy="101.2" rx="2.4" ry="1.4" fill="#fff4dc"/><ellipse cx="78.2" cy="101.4" rx="1.4" ry="0.9" fill="#fff4dc"/><ellipse cx="22" cy="101.6" rx="1.3" ry="0.9" fill="#fff4dc"/><ellipse cx="33.6" cy="87.2" rx="1.7" ry="1.2" fill="#fff4dc"/><ellipse cx="66.6" cy="86.8" rx="1.6" ry="1.1" fill="#fff4dc"/><ellipse cx="56.6" cy="82.4" rx="1.2" ry="0.8" fill="#fff4dc"/></g><path d="M18.8 100.6 C17.8 87.2 31.6 79.2 50 79.2 C68.4 79.2 82.2 87.2 81.2 100.6 C81 104.4 71.6 106.2 50 106.2 C28.4 106.2 19 104.4 18.8 100.6 Z" fill="none" stroke="#1b1016" stroke-width="1.35"/></g></svg>