<svg xmlns="http://www.w3.org/2000/svg" xmlns:xlink="http://www.w3.org/1999/xlink" width="144" height="144" viewBox="0 0 144 144" shape-rendering="geometricPrecision"><defs><g id="i-flower"><g fill="#f08fa2"><circle cx="47.0" cy="32.9" r="15.4"/><circle cx="65.4" cy="41.8" r="14.4"/><circle cx="62.5" cy="62.1" r="15.8"/><circle cx="42.4" cy="65.6" r="14.6"/><circle cx="32.8" cy="47.6" r="15.2"/><circle cx="50" cy="50" r="13"/></g><circle cx="50" cy="50" r="4.2" fill="#f3ea9f"/></g><g id="i-smiley" fill="none" stroke="#f08fa2" stroke-width="3.90" stroke-linecap="round"><circle cx="50" cy="50" r="34"/><path d="M38.5 38.5v8M61.5 38.5v8"/><path d="M33.5 58.5q16.5 17 33 0"/></g><g id="i-yy" transform="rotate(38 50 50)"><circle cx="50" cy="50" r="34" fill="none" stroke="#f08fa2" stroke-width="3.90"/><path fill="#f08fa2" d="M50 16A34 34 0 0 1 50 84A17 17 0 0 0 50 50A17 17 0 0 1 50 16Z"/><circle cx="50" cy="33" r="5" fill="#f3ea9f"/><circle cx="50" cy="67" r="5" fill="#f08fa2"/></g><g id="i-cherry"><g fill="none" stroke="#f08fa2" stroke-width="3.64" stroke-linecap="round"><path d="M37 54Q39 36 50 23"/><path d="M62 50Q57 34 50 23"/></g><path fill="#f08fa2" d="M50 23C45 13 34 15 31 25C39 28 46 28 50 23Z"/><circle cx="35" cy="68" r="15" fill="#f08fa2"/><circle cx="63" cy="63" r="14" fill="#f08fa2"/><g fill="none" stroke="#f3ea9f" stroke-width="3.12" stroke-linecap="round"><path d="M43.5 62Q47 67 44.5 73"/><path d="M70.5 57Q74 62 71.5 68"/></g><path d="M47.5 23L37 22" stroke="#f3ea9f" stroke-width="1.6" stroke-linecap="round" fill="none"/></g></defs><rect width="144" height="144" fill="#f08fa2"/><rect x="36" y="0" width="36" height="36" fill="#f3ea9f"/><rect x="108" y="0" width="36" height="36" fill="#f3ea9f"/><rect x="0" y="36" width="36" height="36" fill="#f3ea9f"/><rect x="72" y="36" width="36" height="36" fill="#f3ea9f"/><rect x="36" y="72" width="36" height="36" fill="#f3ea9f"/><rect x="108" y="72" width="36" height="36" fill="#f3ea9f"/><rect x="0" y="108" width="36" height="36" fill="#f3ea9f"/><rect x="72" y="108" width="36" height="36" fill="#f3ea9f"/><use xlink:href="#i-smiley" transform="translate(36 0) scale(0.36)"/><use xlink:href="#i-flower" transform="translate(108 0) scale(0.36)"/><use xlink:href="#i-yy" transform="translate(0 36) scale(0.36)"/><use xlink:href="#i-cherry" transform="translate(72 36) scale(0.36)"/><use xlink:href="#i-flower" transform="translate(36 72) scale(0.36)"/><use xlink:href="#i-smiley" transform="translate(108 72) scale(0.36)"/><use xlink:href="#i-cherry" transform="translate(0 108) scale(0.36)"/><use xlink:href="#i-yy" transform="translate(72 108) scale(0.36)"/></svg>