<svg xmlns="http://www.w3.org/2000/svg" width="128" height="88" viewBox="-64 -42 128 88"><path d="M-26-14V-30Q-26-38-18-38H18Q26-38 26-30V-14" fill="none" stroke="#9b72dd" stroke-width="7" stroke-linecap="round"/><rect x="-60" y="-20" width="120" height="62" rx="12" fill="#c9a7f2"/><rect x="-60" y="30" width="120" height="12" rx="6" fill="#9b72dd" opacity=".55"/><circle cx="-35" cy="12" r="20" fill="#9b72dd"/><circle cx="-35" cy="12" r="12.5" fill="#c9a7f2"/><circle cx="-35" cy="12" r="5" fill="#9b72dd"/><circle cx="35" cy="12" r="20" fill="#9b72dd"/><circle cx="35" cy="12" r="12.5" fill="#c9a7f2"/><circle cx="35" cy="12" r="5" fill="#9b72dd"/><rect x="-15" y="-12" width="30" height="19" rx="4.5" fill="#fdf9ff"/><circle cx="-6.5" cy="-2.5" r="4.4" fill="#f4a3d0"/><circle cx="6.5" cy="-2.5" r="4.4" fill="#8fe6c8"/><rect x="-19" y="14" width="8" height="9" rx="2.5" fill="#f4a3d0"/><rect x="-9" y="14" width="8" height="9" rx="2.5" fill="#f7ea4a"/><rect x="1" y="14" width="8" height="9" rx="2.5" fill="#8fe6c8"/><rect x="11" y="14" width="8" height="9" rx="2.5" fill="#f4a3d0"/></svg>