<svg xmlns="http://www.w3.org/2000/svg" viewBox="0 0 1024 1024"><!-- Favicon: concept C tribal-swirl P (bowl from the pastel logo spiral, stem from the windbreaker print) on a pink rounded tile. Hard colours, no currentColor, no text. --><rect width="1024" height="1024" rx="232" fill="#f595c8"/><g transform="translate(512 512) scale(.9) translate(-512 -512)"><path fill="#1a1420" stroke="#1a1420" stroke-width="40" stroke-linejoin="round" fill-rule="evenodd" d="M612.4 300.3C658.1 340.2 644.2 398 584.2 409.6C562.9 413.8 542.6 407.9 523.7 398.2C467.7 369.2 440.8 305.4 458.3 244.3C467.8 211.3 491.6 184.3 520.8 167.1C610.2 114.4 706.3 153.6 754.8 239.9C774.3 274.5 784.2 314.2 784.5 353.7C785.8 522.8 613.8 602.2 466.8 557.9C432.1 547.5 387.9 530 364.1 501.3C354.3 489.5 355 473.5 347.2 460.7C334.6 440.3 315.6 426.2 304.9 404.1C280.5 353.6 291 286.2 307.3 234.3C325.8 175.4 357.4 175.1 353.4 103.8C334.1 113.5 315.5 137.6 296.4 142.5C276.2 147.6 244.7 129.2 248.9 105.9C250.9 94.9 258.1 84.8 261.3 74.1C222.3 84 204 136 225.5 170.3C233.2 182.7 245.3 190.3 257.5 197.5C255.2 230.5 239.1 269.7 211.4 288.6C173.8 271.6 174.2 260.1 163.6 223.8C136.5 247.9 143.3 305.6 172 327C184.9 336.5 201.9 338.7 217.1 342.7C220.4 377.8 223.9 419.5 214 453.6C185.7 454.9 171 450.3 150.8 430.4C145.3 459.8 161.5 509.4 191.7 521.8C206.8 528 226.1 525.5 242.2 527.7C249 553.3 263.5 625.6 213.6 616.9C201 614.7 189.3 605.9 177.8 600.4C179 665.5 227.3 682.6 283.8 671.8C323.5 739.7 332 902.1 266.8 957.1C309.9 958.1 326.1 880.8 347.2 853.4C357 840.5 374.1 839.3 388.7 835.4C384.6 821.1 377.9 811.7 368.3 800.4C379.9 788.9 393.1 784.2 407.6 777.2C400.7 745.4 373.6 735.4 373.5 699.8C393.7 690.3 433.1 675.1 449.4 665C421.9 643.4 377.4 646.1 354.8 616.3C343.4 601.1 342 577.7 338.9 559.6C367.7 553.7 384.8 580.8 406 596.6C439.4 621.5 477.9 639.1 518.5 648.2C712.5 691.7 895.4 531.7 878.6 333.7C865.9 183.5 737.4 64.1 586.7 62.3C519.7 61.5 462.2 85.4 423 141.3C406.7 164.5 392.9 190.5 386.3 218.2C357.4 340.2 443.2 505.6 587.4 456.6C672.8 427.6 697.1 312.3 612.4 300.3ZM316.4 489.7C316.4 505.8 303.3 518.9 287.2 518.9C271.1 518.9 258 505.8 258 489.7C258 473.6 271.1 460.5 287.2 460.5C303.3 460.5 316.4 473.6 316.4 489.7Z"/></g></svg>
